<svg id="Capa_1" enable-background="new 0 0 512 512" height="512" viewBox="0 0 512 512" width="512" xmlns="http://www.w3.org/2000/svg"><g><path d="m91 185.844v90h70l80 60v-210l-80 60zm60 60h-30v-30h30zm60 30-30-22.5v-45l30-22.5z"/><path d="m271 215.844h30v30h-30z"/><path d="m331 215.844h30v30h-30z"/><path d="m391 215.844h30v30h-30z"/><path d="m331 50.844h-150c-99.804 0-181 80.748-181 180 0 28.09 7.42 56.857 21.5 83.513l-21.487 146.799 101.239-68.905c24.667 12.188 52.042 18.593 79.748 18.593h150c99.804 0 181-80.748 181-180s-81.196-180-181-180zm0 330h-150c-25.729 0-51.104-6.619-73.383-19.142l-8.104-4.556-59.926 40.786 13.063-89.245c-1.119-2.63-22.65-34.607-22.65-77.843 0-82.71 67.738-150 151-150h150c83.262 0 151 67.29 151 150s-67.738 150-151 150z"/></g></svg>